<?xml version='1.0' encoding='utf-8'?>
<!DOCTYPE svg PUBLIC '-//W3C//DTD SVG 1.1//EN' 'http://www.w3.org/Graphics/SVG/1.1/DTD/svg11.dtd'>
<svg version="1.1" xmlns="http://www.w3.org/2000/svg" viewBox="0 0 512 512" xmlns:xlink="http://www.w3.org/1999/xlink" enable-background="new 0 0 512 512">
  <g>
    <g>
      <path d="m256,255.4c-135.1,0-245,101-245,225.2 0,11.3 9.1,20.4 20.4,20.4 11.3,0 20.4-9.1 20.4-20.4 0-101.6 91.6-184.3 204.2-184.3s204.2,82.7 204.2,184.3c0,11.3 9.1,20.4 20.4,20.4 11.3,0 20.4-9.1 20.4-20.4 5.68434e-14-124.2-109.9-225.2-245-225.2z"/>
      <path d="M256,240.7c65.7,0,119.2-51.5,119.2-114.8C375.2,62.5,321.7,11,256,11c-65.8,0-119.3,51.5-119.3,114.8    C136.7,189.1,190.2,240.7,256,240.7z M256,51.8c43.2,0,78.4,33.2,78.4,74c0,40.8-35.2,74-78.4,74c-43.2,0-78.4-33.2-78.4-74    C177.6,85,212.8,51.8,256,51.8z"/>
      <path d="m377.4,391.9h-45v-43.7c0-11.3-9.1-20.4-20.4-20.4-11.3,0-20.4,9.1-20.4,20.4v43.7h-45c-11.3,0-20.4,9.1-20.4,20.4 0,11.3 9.1,20.4 20.4,20.4h45v43.7c0,11.3 9.1,20.4 20.4,20.4 11.3,0 20.4-9.1 20.4-20.4v-43.7h45c11.3,0 20.4-9.1 20.4-20.4 5.68434e-14-11.3-9.2-20.4-20.4-20.4z"/>
    </g>
  </g>
</svg>
