<svg xmlns="http://www.w3.org/2000/svg" xmlns:xlink="http://www.w3.org/1999/xlink" version="1.1" width="256" height="256" viewBox="0 0 256 256" xml:space="preserve">
<desc>Created with Fabric.js 1.7.22</desc>
<defs>
</defs>
<g transform="translate(128 128) scale(0.87 0.87)" style="">
	<g style="stroke: none; stroke-width: 0; stroke-dasharray: none; stroke-linecap: butt; stroke-linejoin: miter; stroke-miterlimit: 10; fill: none; fill-rule: nonzero; opacity: 1;" transform="translate(-144.89999999999998 -144.90000000000003) scale(3.22 3.22)" >
	<path d="M 45 76.122 c -3.015 0 -5.467 -2.453 -5.467 -5.468 v -8.367 c -2.284 -1.98 -3.326 -5.044 -2.676 -8.095 c 0.667 -3.138 3.226 -5.688 6.366 -6.344 c 2.508 -0.525 5.072 0.088 7.031 1.678 c 1.958 1.592 3.082 3.951 3.082 6.472 c 0 2.438 -1.055 4.717 -2.869 6.289 v 8.367 C 50.467 73.669 48.014 76.122 45 76.122 z M 45.006 51.663 c -0.317 0 -0.64 0.033 -0.965 0.102 c -1.614 0.337 -2.929 1.647 -3.272 3.259 c -0.383 1.802 0.347 3.608 1.86 4.599 c 0.564 0.37 0.904 0.999 0.904 1.673 v 9.357 c 0 0.809 0.658 1.467 1.467 1.467 c 0.808 0 1.466 -0.658 1.466 -1.467 v -9.357 c 0 -0.675 0.34 -1.304 0.904 -1.673 c 1.23 -0.806 1.964 -2.162 1.964 -3.626 c 0 -1.311 -0.585 -2.539 -1.604 -3.367 C 46.947 51.994 46.003 51.663 45.006 51.663 z" style="stroke: none; stroke-width: 1; stroke-dasharray: none; stroke-linecap: butt; stroke-linejoin: miter; stroke-miterlimit: 10; fill: rgb(0,0,0); fill-rule: nonzero; opacity: 1;" transform=" matrix(1 0 0 1 0 0) " stroke-linecap="round" />
	<path d="M 20.959 38.899 c -1.105 0 -2 -0.896 -2 -2 V 26.034 C 18.958 11.674 30.641 -0.008 45 -0.008 c 14.359 0 26.041 11.682 26.041 26.042 v 10.639 c 0 1.105 -0.896 2 -2 2 s -2 -0.896 -2 -2 V 26.034 C 67.04 13.88 57.153 3.993 45 3.993 c -12.153 0 -22.041 9.887 -22.041 22.041 v 10.865 C 22.959 38.003 22.063 38.899 20.959 38.899 z M 61.883 37.534 c -1.105 0 -2 -0.896 -2 -2 v -9.5 c 0 -8.206 -6.676 -14.882 -14.882 -14.882 c -8.206 0 -14.882 6.676 -14.882 14.882 v 9.5 c 0 1.105 -0.896 2 -2 2 c -1.105 0 -2 -0.896 -2 -2 v -9.5 c 0 -10.412 8.471 -18.883 18.883 -18.883 s 18.883 8.471 18.883 18.883 v 9.5 C 63.883 36.639 62.987 37.534 61.883 37.534 z" style="stroke: none; stroke-width: 1; stroke-dasharray: none; stroke-linecap: butt; stroke-linejoin: miter; stroke-miterlimit: 10; fill: rgb(0,0,0); fill-rule: nonzero; opacity: 1;" transform=" matrix(1 0 0 1 0 0) " stroke-linecap="round" />
	<path d="M 45 89.992 c -9.171 0 -18.338 -1.143 -27.444 -3.43 c -3.318 -0.832 -5.636 -3.811 -5.636 -7.244 V 42.896 c 0 -3.433 2.318 -6.412 5.636 -7.245 c 18.21 -4.574 36.678 -4.574 54.887 0 c 3.318 0.834 5.636 3.813 5.636 7.245 v 36.421 c 0 3.433 -2.318 6.412 -5.637 7.244 C 63.34 88.848 54.169 89.992 45 89.992 z M 45 36.223 c -8.843 0 -17.687 1.103 -26.469 3.309 c -1.537 0.385 -2.61 1.769 -2.61 3.365 v 36.421 c 0 1.596 1.073 2.979 2.609 3.365 c 17.565 4.411 35.376 4.411 52.939 0 c 1.536 -0.386 2.61 -1.77 2.61 -3.365 V 42.896 c 0 -1.595 -1.073 -2.979 -2.61 -3.365 C 62.688 37.325 53.844 36.223 45 36.223 z" style="stroke: none; stroke-width: 1; stroke-dasharray: none; stroke-linecap: butt; stroke-linejoin: miter; stroke-miterlimit: 10; fill: rgb(0,0,0); fill-rule: nonzero; opacity: 1;" transform=" matrix(1 0 0 1 0 0) " stroke-linecap="round" />
</g>
</g>
</svg>