<?xml version="1.0" encoding="iso-8859-1"?>
<!-- Generator: Adobe Illustrator 16.0.0, SVG Export Plug-In . SVG Version: 6.00 Build 0)  -->
<!DOCTYPE svg PUBLIC "-//W3C//DTD SVG 1.1//EN" "http://www.w3.org/Graphics/SVG/1.1/DTD/svg11.dtd">
<svg version="1.1" id="Capa_1" xmlns="http://www.w3.org/2000/svg" xmlns:xlink="http://www.w3.org/1999/xlink" x="0px" y="0px"
	 width="36.09px" height="36.09px" viewBox="0 0 36.09 36.09" style="enable-background:new 0 0 36.09 36.09;" xml:space="preserve"
	>
<g>
	<path d="M36.041,13.907c-0.123-0.377-0.456-0.646-0.85-0.687l-11.549-1.172L18.96,1.431c-0.16-0.364-0.519-0.598-0.915-0.598
		s-0.755,0.234-0.915,0.598l-4.683,10.618L0.899,13.221c-0.394,0.04-0.728,0.31-0.85,0.688c-0.123,0.377-0.011,0.791,0.285,1.055
		l8.653,7.736L6.534,34.044c-0.083,0.387,0.069,0.787,0.39,1.021c0.322,0.231,0.75,0.254,1.091,0.056l10.031-5.839l10.031,5.839
		c0.156,0.091,0.33,0.136,0.503,0.136c0.207,0,0.413-0.064,0.588-0.191c0.32-0.23,0.474-0.633,0.391-1.02L27.105,22.7l8.652-7.737
		C36.052,14.698,36.164,14.284,36.041,13.907z M8.968,32.249l2.097-9.696c0.076-0.352-0.043-0.717-0.311-0.956l-7.396-6.613
		l9.871-1.002c0.358-0.035,0.669-0.263,0.814-0.592l3.503-7.943v21.812c-0.001,0-0.002,0-0.003,0.001L8.968,32.249z"/>
</g>
<g>
</g>
<g>
</g>
<g>
</g>
<g>
</g>
<g>
</g>
<g>
</g>
<g>
</g>
<g>
</g>
<g>
</g>
<g>
</g>
<g>
</g>
<g>
</g>
<g>
</g>
<g>
</g>
<g>
</g>
</svg>
